<svg width="38" height="38" viewBox="0 0 38 38" fill="none" xmlns="http://www.w3.org/2000/svg">
<path d="M4.75 4.75H5.17488C5.92503 4.75 6.30044 4.75 6.6064 4.88534C6.87615 5.00467 7.10712 5.19697 7.27344 5.44058C7.46207 5.71689 7.52999 6.0858 7.66618 6.82349L11.0834 25.3334L27.5809 25.3333C28.3004 25.3333 28.6609 25.3333 28.9585 25.2064C29.2211 25.0943 29.4482 24.9135 29.6164 24.6828C29.807 24.4213 29.8875 24.0707 30.0493 23.3696L32.5339 12.6029C32.7785 11.5429 32.901 11.0131 32.7665 10.5967C32.6486 10.2316 32.4012 9.92171 32.072 9.72471C31.6966 9.5 31.1533 9.5 30.0655 9.5H8.70833M28.5 33.25C27.6255 33.25 26.9167 32.5411 26.9167 31.6667C26.9167 30.7922 27.6255 30.0833 28.5 30.0833C29.3745 30.0833 30.0833 30.7922 30.0833 31.6667C30.0833 32.5411 29.3745 33.25 28.5 33.25ZM12.6667 33.25C11.7922 33.25 11.0833 32.5411 11.0833 31.6667C11.0833 30.7922 11.7922 30.0833 12.6667 30.0833C13.5411 30.0833 14.25 30.7922 14.25 31.6667C14.25 32.5411 13.5411 33.25 12.6667 33.25Z" stroke="#00A99D" stroke-width="2" stroke-linecap="round" stroke-linejoin="round"/>
</svg>
