<svg width="25" height="24" viewBox="0 0 25 24" fill="none" xmlns="http://www.w3.org/2000/svg">
<path d="M17.375 6.99968C17.375 6.58546 17.0392 6.24968 16.625 6.24968C16.2108 6.24968 15.875 6.58546 15.875 6.99968V8.2497H14.625C14.2108 8.2497 13.875 8.58548 13.875 8.9997C13.875 9.41391 14.2108 9.7497 14.625 9.7497L15.875 9.74969V10.9997C15.875 11.4139 16.2108 11.7497 16.625 11.7497C17.0392 11.7497 17.375 11.4139 17.375 10.9997V9.74969H18.625C19.0392 9.74969 19.375 9.41391 19.375 8.99969C19.375 8.58548 19.0392 8.24969 18.625 8.24969H17.375V6.99968Z" fill="#494949"/>
<path fill-rule="evenodd" clip-rule="evenodd" d="M22.875 9.31715C22.875 5.99175 21.3926 3.50934 19.0859 2.60612C16.9502 1.76986 14.3868 2.39555 12.125 4.51285C9.86315 2.39555 7.29979 1.76986 5.1641 2.60613C2.85742 3.50935 1.375 5.99177 1.375 9.31718C1.375 11.4351 2.50541 13.5193 3.91229 15.3136C5.33363 17.1264 7.12171 18.7496 8.61414 19.9607L8.74827 20.0696C9.94886 21.0453 10.8156 21.7497 12.125 21.7497C13.4344 21.7497 14.3012 21.0453 15.5017 20.0697L15.6359 19.9607C17.1283 18.7496 18.9164 17.1264 20.3377 15.3136C21.7446 13.5193 22.875 11.4351 22.875 9.31715ZM12.6728 6.08603C14.7846 3.82746 16.9741 3.3901 18.539 4.00286C20.1073 4.61698 21.375 6.41255 21.375 9.31715C21.375 10.9286 20.4957 12.6811 19.1573 14.3881C17.8334 16.0767 16.1406 17.6194 14.6907 18.796C13.2981 19.926 12.8479 20.2497 12.125 20.2497C11.4021 20.2497 10.9519 19.926 9.55932 18.7959C8.10945 17.6194 6.41666 16.0766 5.09271 14.3881C3.75431 12.6811 2.875 10.9286 2.875 9.31718C2.875 6.41257 4.14266 4.61699 5.71102 4.00287C7.27592 3.3901 9.46539 3.82746 11.5772 6.08603C11.719 6.23771 11.9173 6.3238 12.125 6.3238C12.3327 6.3238 12.531 6.23771 12.6728 6.08603Z" fill="#494949"/>
</svg>
