<svg width="25" height="24" viewBox="0 0 25 24" fill="none" xmlns="http://www.w3.org/2000/svg">
<path d="M17.375 18.4297H13.375L8.92499 21.3897C8.26499 21.8297 7.375 21.3598 7.375 20.5598V18.4297C4.375 18.4297 2.375 16.4297 2.375 13.4297V7.42969C2.375 4.42969 4.375 2.42969 7.375 2.42969H17.375C20.375 2.42969 22.375 4.42969 22.375 7.42969V13.4297C22.375 16.4297 20.375 18.4297 17.375 18.4297Z" stroke="#494949" stroke-width="1.5" stroke-miterlimit="10" stroke-linecap="round" stroke-linejoin="round"/>
<path d="M12.3748 11.3604V11.1504C12.3748 10.4704 12.7948 10.1104 13.2148 9.82037C13.6248 9.54037 14.0348 9.18039 14.0348 8.52039C14.0348 7.60039 13.2948 6.86035 12.3748 6.86035C11.4548 6.86035 10.7148 7.60039 10.7148 8.52039" stroke="#494949" stroke-width="1.5" stroke-linecap="round" stroke-linejoin="round"/>
<path d="M12.3705 13.75H12.3795" stroke="#494949" stroke-width="1.5" stroke-linecap="round" stroke-linejoin="round"/>
</svg>
