<svg width="24" height="24" viewBox="0 0 24 24" fill="none" xmlns="http://www.w3.org/2000/svg">
<path d="M12 15.5C14.21 15.5 16 13.71 16 11.5V6C16 3.79 14.21 2 12 2C9.79 2 8 3.79 8 6V11.5C8 13.71 9.79 15.5 12 15.5Z" stroke="#8E8E8E" stroke-width="1.5" stroke-linecap="round" stroke-linejoin="round"/>
<path d="M4.34961 9.6499V11.3499C4.34961 15.5699 7.77961 18.9999 11.9996 18.9999C16.2196 18.9999 19.6496 15.5699 19.6496 11.3499V9.6499" stroke="#8E8E8E" stroke-width="1.5" stroke-linecap="round" stroke-linejoin="round"/>
<path d="M10.6104 6.43012C11.5104 6.10012 12.4904 6.10012 13.3904 6.43012" stroke="#8E8E8E" stroke-width="1.5" stroke-linecap="round" stroke-linejoin="round"/>
<path d="M11.2002 8.54982C11.7302 8.40982 12.2802 8.40982 12.8102 8.54982" stroke="#8E8E8E" stroke-width="1.5" stroke-linecap="round" stroke-linejoin="round"/>
<path d="M12 19V22" stroke="#8E8E8E" stroke-width="1.5" stroke-linecap="round" stroke-linejoin="round"/>
</svg>
