<svg width="20" height="22" viewBox="0 0 20 22" fill="none" xmlns="http://www.w3.org/2000/svg">
<circle cx="10" cy="11" r="10" fill="#00A99D"/>
<path d="M5.75418 17V15.659C6.21618 15.245 6.73518 14.783 7.31118 14.273C7.88718 13.757 8.46018 13.22 9.03018 12.662C9.60618 12.098 10.1342 11.54 10.6142 10.988C11.0942 10.436 11.4812 9.914 11.7752 9.422C12.0692 8.924 12.2162 8.489 12.2162 8.117C12.2162 7.673 12.1082 7.268 11.8922 6.902C11.6762 6.53 11.3852 6.233 11.0192 6.011C10.6592 5.789 10.2572 5.678 9.81318 5.678C9.36918 5.678 8.96118 5.789 8.58918 6.011C8.22318 6.233 7.92918 6.53 7.70718 6.902C7.49118 7.268 7.38318 7.673 7.38318 8.117H5.87118C5.87118 7.379 6.05118 6.713 6.41118 6.119C6.77118 5.519 7.24818 5.045 7.84218 4.697C8.43618 4.343 9.09318 4.166 9.81318 4.166C10.5332 4.166 11.1872 4.343 11.7752 4.697C12.3692 5.051 12.8432 5.528 13.1972 6.128C13.5512 6.722 13.7282 7.385 13.7282 8.117C13.7282 8.537 13.6262 8.99 13.4222 9.476C13.2182 9.956 12.9392 10.451 12.5852 10.961C12.2312 11.471 11.8292 11.987 11.3792 12.509C10.9292 13.025 10.4552 13.535 9.95718 14.039C9.45918 14.543 8.96418 15.026 8.47218 15.488H13.8902V17H5.75418Z" fill="#F7F7F7"/>
</svg>
