<svg width="25" height="24" viewBox="0 0 25 24" fill="none" xmlns="http://www.w3.org/2000/svg">
<path fill-rule="evenodd" clip-rule="evenodd" d="M9.41966 1.35449C9.06309 1.14371 8.60316 1.26188 8.39237 1.61845C8.18158 1.97502 8.29976 2.43495 8.65633 2.64574L8.85225 2.76156L2.12714 14.3696C0.578446 17.0428 1.49856 20.4597 4.17822 22.0015C6.85638 23.5424 10.2821 22.629 11.8299 19.9574L18.5586 8.34312L18.751 8.45386C19.11 8.66051 19.5685 8.53701 19.7752 8.17803C19.9818 7.81904 19.8583 7.36051 19.4993 7.15386L18.6588 6.66999L10.2514 1.84616L9.41966 1.35449ZM3.42505 15.1216L10.1484 3.51648L17.2581 7.59571L15.7531 10.1934L13.8432 9.09455C13.4842 8.88798 13.0257 9.01157 12.8191 9.3706C12.6125 9.72963 12.7361 10.1881 13.0951 10.3947L15.0012 11.4913L14.0397 13.1509L10.4849 11.1056C10.1258 10.899 9.66734 11.0226 9.46077 11.3817C9.2542 11.7407 9.37779 12.1992 9.73682 12.4058L13.2877 14.4488L12.4021 15.9774L10.4376 14.8471C10.0785 14.6406 9.62004 14.7641 9.41347 15.1232C9.2069 15.4822 9.33049 15.9407 9.68952 16.1473L11.6502 17.2754L10.532 19.2054C9.39983 21.1597 6.89001 21.8312 4.92628 20.7014C2.96407 19.5724 2.29376 17.0743 3.42505 15.1216Z" fill="#494949"/>
<path fill-rule="evenodd" clip-rule="evenodd" d="M21.3004 12.1016C20.6576 11.4233 19.5927 11.4233 18.9499 12.1016C18.6424 12.4261 18.2671 12.8568 17.964 13.3159C17.6796 13.7467 17.3752 14.3243 17.3752 14.9167C17.3752 16.4524 18.5778 17.75 20.1252 17.75C21.6725 17.75 22.8752 16.4524 22.8752 14.9167C22.8752 14.3243 22.5708 13.7467 22.2863 13.3159C21.9833 12.8568 21.608 12.4261 21.3004 12.1016ZM20.0386 13.1334C20.0679 13.1025 20.0986 13.0929 20.1252 13.0929C20.1517 13.0929 20.1824 13.1025 20.2117 13.1334C20.4903 13.4273 20.7995 13.7863 21.0345 14.1422C21.2881 14.5264 21.3752 14.7892 21.3752 14.9167C21.3752 15.6822 20.787 16.25 20.1252 16.25C19.4634 16.25 18.8752 15.6822 18.8752 14.9167C18.8752 14.7892 18.9623 14.5264 19.2158 14.1422C19.4508 13.7863 19.7601 13.4273 20.0386 13.1334Z" fill="#494949"/>
</svg>
