<svg width="56" height="57" viewBox="0 0 56 57" fill="none" xmlns="http://www.w3.org/2000/svg">
<path d="M37.3337 37.8335L28.0004 28.5001M28.0004 28.5001L18.6671 37.8335M28.0004 28.5001V49.5001M47.5771 43.4101C49.8529 42.1694 51.6507 40.2062 52.6868 37.8302C53.7229 35.4543 53.9382 32.801 53.2989 30.2891C52.6595 27.7771 51.2019 25.5497 49.156 23.9582C47.1101 22.3667 44.5924 21.5018 42.0004 21.5001H39.0604C38.3541 18.7684 37.0378 16.2322 35.2103 14.0824C33.3828 11.9326 31.0917 10.2251 28.5093 9.08821C25.9269 7.95131 23.1203 7.41463 20.3007 7.51852C17.481 7.62241 14.7216 8.36416 12.2298 9.68801C9.73806 11.0119 7.57886 12.8834 5.91451 15.1618C4.25017 17.4403 3.12401 20.0664 2.62068 22.8427C2.11736 25.619 2.24997 28.4734 3.00856 31.1911C3.76715 33.9088 5.13196 36.4191 7.0004 38.5335" stroke="#00A99D" stroke-width="1.5" stroke-linecap="round" stroke-linejoin="round"/>
</svg>
