<svg width="48" height="48" viewBox="0 0 48 48" fill="none" xmlns="http://www.w3.org/2000/svg">
<rect x="0.5" y="0.5" width="47" height="47" rx="23.5" fill="white"/>
<rect x="0.5" y="0.5" width="47" height="47" rx="23.5" stroke="#F7F7F7"/>
<path d="M18.7599 34H29.2399C31.9999 34 33.0999 32.31 33.2299 30.25L33.7499 21.99C33.8899 19.83 32.1699 18 29.9999 18C29.3899 18 28.8299 17.65 28.5499 17.11L27.8299 15.66C27.3699 14.75 26.1699 14 25.1499 14H22.8599C21.8299 14 20.6299 14.75 20.1699 15.66L19.4499 17.11C19.1699 17.65 18.6099 18 17.9999 18C15.8299 18 14.1099 19.83 14.2499 21.99L14.7699 30.25C14.8899 32.31 15.9999 34 18.7599 34Z" stroke="#494949" stroke-width="1.5" stroke-linecap="round" stroke-linejoin="round"/>
<path d="M22.5 20H25.5" stroke="#494949" stroke-width="1.5" stroke-linecap="round" stroke-linejoin="round"/>
<path d="M24 30C25.79 30 27.25 28.54 27.25 26.75C27.25 24.96 25.79 23.5 24 23.5C22.21 23.5 20.75 24.96 20.75 26.75C20.75 28.54 22.21 30 24 30Z" stroke="#494949" stroke-width="1.5" stroke-linecap="round" stroke-linejoin="round"/>
</svg>
