<svg width="24" height="24" viewBox="0 0 24 24" fill="none" xmlns="http://www.w3.org/2000/svg">
<path d="M8.5 6H15.5M10 17H14M12 19V15M15 11.1736C17.3649 12.2971 19 14.7076 19 17.5V19.5C19 20.6046 18.1046 21.5 17 21.5H7C5.89543 21.5 5 20.6046 5 19.5V17.5C5 14.7076 6.63505 12.2971 9 11.1736M12 12C10.067 12 8.5 10.433 8.5 8.5V4C8.5 2.89543 9.39543 2 10.5 2H13.5C14.6046 2 15.5 2.89543 15.5 4V8.5C15.5 10.433 13.933 12 12 12Z" stroke="#252525" stroke-width="1.5" stroke-linecap="round" stroke-linejoin="round"/>
</svg>
