<svg width="24" height="24" viewBox="0 0 24 24" fill="none" xmlns="http://www.w3.org/2000/svg">
<path d="M2.5 14H9C10 14 11 15.5 12 15.5C12.8643 15.5 14.4757 14.7529 15.2199 16.1645C15.4551 16.6106 15.141 17.1203 14.6751 17.3135C13.596 17.7609 12.3941 18.3686 12 18.5L9 17.5M15.5 16.5L20.076 14.6696C20.3538 14.5585 20.6559 14.5223 20.9521 14.5646C21.9989 14.7141 22.2946 16.0853 21.4025 16.653L13.7586 21.5173C13.2761 21.8243 12.6853 21.9101 12.1354 21.753L2.5 19M12 12C10.075 11.3223 6.5 8.4091 6.5 5.20455C6.5 3.43474 7.85434 2 9.525 2C10.5481 2 11.4526 2.53804 12 3.36158C12.5474 2.53804 13.4519 2 14.475 2C16.1457 2 17.5 3.43474 17.5 5.20455C17.5 8.4091 13.925 11.3223 12 12Z" stroke="#252525" stroke-width="1.5" stroke-linecap="round" stroke-linejoin="round"/>
</svg>
