<svg width="14" height="14" viewBox="0 0 14 14" fill="none" xmlns="http://www.w3.org/2000/svg">
<path d="M1.4585 8.1665H5.25016C5.8335 8.1665 6.41683 9.0415 7.00016 9.0415C7.50435 9.0415 8.44432 8.60572 8.87843 9.42911C9.01563 9.68934 8.83239 9.98669 8.56064 10.0994C7.93119 10.3603 7.23007 10.7149 7.00016 10.7915L5.25016 10.2082M9.04183 9.62484L11.7112 8.55711C11.8732 8.49229 12.0494 8.47116 12.2222 8.49584C12.8328 8.58308 13.0053 9.38291 12.4849 9.71407L8.02602 12.5516C7.74457 12.7307 7.39992 12.7807 7.07915 12.6891L1.4585 11.0832M5.54183 4.08317V5.5415C5.54183 6.34692 6.19475 6.99984 7.00016 6.99984C7.80558 6.99984 8.4585 6.34692 8.4585 5.5415V4.08317M5.54183 4.08317V2.62484C5.54183 1.81942 6.19475 1.1665 7.00016 1.1665C7.80558 1.1665 8.4585 1.81942 8.4585 2.62484V4.08317M5.54183 4.08317H8.4585" stroke="#8E8E8E" stroke-linecap="round" stroke-linejoin="round"/>
</svg>
