<svg width="80" height="80" viewBox="0 0 80 80" fill="none" xmlns="http://www.w3.org/2000/svg">
<rect width="80" height="80" rx="12" fill="#EDFFFE"/>
<path d="M40.688 24.462L55.538 39.312M54 44L36 26L45 23L57 35L54 44Z" stroke="#00A99D" stroke-width="1.5" stroke-miterlimit="10" stroke-linecap="round" stroke-linejoin="round"/>
<path d="M54 44L40 52L36 61L31 63L17 49L19 44L28 40L36 26M57 35L61 31L59 27L61 24V19H56L53 21L49 19L45 23M45 41L43 39M41 45L39 43M37 49L35 47" stroke="#00A99D" stroke-width="1.5" stroke-miterlimit="10" stroke-linecap="round" stroke-linejoin="round"/>
</svg>
