<svg width="80" height="80" viewBox="0 0 80 80" fill="none" xmlns="http://www.w3.org/2000/svg">
<rect width="80" height="80" rx="12" fill="#EDFFFE"/>
<path d="M32 22C26 22 22 26.4772 22 32C22 34.2512 23 37 25 40C26.7046 42.5569 27.9249 49.7143 29.28 55.2811C29.6747 56.9022 31.1457 58 32.814 58C34.6525 58 36.2215 56.6709 36.5238 54.8574L37.6712 47.9728C37.8609 46.8344 38.8459 46 40 46C41.1541 46 42.1398 46.8344 42.3295 47.9728L43.477 54.8574C43.7792 56.6709 45.3482 58 47.1867 58C48.8551 58 50.3261 56.9022 50.7207 55.2811C52.0758 49.7143 53.2962 42.5569 55.0007 40C57.0007 37 58.0007 34.2512 58.0007 32C58.0007 26.4772 54.0007 22 48.0007 22C42.0007 22 42.0015 26 40.0007 26C38 26 38 22 32 22Z" stroke="#00A99D" stroke-width="1.5" stroke-linecap="round" stroke-linejoin="round"/>
</svg>
