<svg width="14" height="15" viewBox="0 0 14 15" fill="none" xmlns="http://www.w3.org/2000/svg">
<path d="M4.95829 3.99984H9.04163M5.83329 10.4165H8.16663M6.99996 11.5832V9.24984M8.74996 7.01779C10.1295 7.67314 11.0833 9.07927 11.0833 10.7082V11.8748C11.0833 12.5192 10.561 13.0415 9.91663 13.0415H4.08329C3.43896 13.0415 2.91663 12.5192 2.91663 11.8748V10.7082C2.91663 9.07927 3.87041 7.67314 5.24996 7.01779M6.99996 7.49984C5.87238 7.49984 4.95829 6.58575 4.95829 5.45817V2.83317C4.95829 2.18884 5.48063 1.6665 6.12496 1.6665H7.87496C8.51929 1.6665 9.04163 2.18884 9.04163 2.83317V5.45817C9.04163 6.58575 8.12754 7.49984 6.99996 7.49984Z" stroke="#8E8E8E" stroke-linecap="round" stroke-linejoin="round"/>
</svg>
