<svg width="80" height="80" viewBox="0 0 80 80" fill="none" xmlns="http://www.w3.org/2000/svg">
<rect width="80" height="80" rx="12" fill="#EDFFFE"/>
<path d="M13 19.6667C13 15.9848 16.134 13 20 13C23.866 13 27 15.9848 27 19.6667C27 23.3352 25.0216 24.9851 23.2422 25.727C21.7858 26.3343 20.4667 27.6125 20.4667 29.1905C20.4667 31.2944 18.7952 33 16.7333 33C14.6715 33 13 31.2944 13 29.1905V27.2857M23.4327 20.367C23.6168 18.4428 22.2061 16.7338 20.2818 16.5497C18.5719 16.3862 17.0319 17.482 16.581 19.0783M17.6842 22.7031C16.8418 21.9871 16.3513 20.8846 16.4645 19.7006C16.485 19.4863 16.5244 19.2784 16.581 19.0783M16.581 19.0783C17.0297 18.8847 17.5321 18.7982 18.0529 18.848C19.7022 19.0057 20.9114 20.4706 20.7537 22.12C20.6428 23.2797 20.0132 24.1677 19 24.57L18.6465 26.5749C18.5026 27.3908 17.7246 27.9355 16.9088 27.7917C16.0929 27.6478 15.5482 26.8698 15.692 26.054" stroke="#00A99D" stroke-width="1.5" stroke-linecap="round" stroke-linejoin="round"/>
<path fill-rule="evenodd" clip-rule="evenodd" d="M63.7966 20.06L63.7949 20.0616C63.651 20.219 63.5781 20.4223 63.5914 20.6289C63.6047 20.8354 63.7032 21.0291 63.8663 21.1693C64.0293 21.3094 64.2443 21.3852 64.4659 21.3806C64.6875 21.3761 64.8986 21.2915 65.0549 21.1448L65.0635 21.1376L65.1269 21.084C65.5329 20.77 66.044 20.5987 66.5712 20.6C67.0812 20.6 67.857 20.992 67.857 22.24C67.857 23.4136 67.3127 24.1936 66.6912 24.696C66.3741 24.952 66.0381 25.1344 65.7466 25.2512C65.6253 25.3004 65.5001 25.3408 65.3721 25.372C65.3318 25.3814 65.2912 25.3894 65.2504 25.396L65.2075 25.4C64.9802 25.4 64.7621 25.4843 64.6014 25.6343C64.4407 25.7843 64.3503 25.9878 64.3503 26.2C64.3503 26.4122 64.4407 26.6157 64.6014 26.7657C64.7621 26.9157 64.9802 27 65.2075 27C65.5649 27 66.0029 26.8888 66.4221 26.7216C66.928 26.5172 67.3975 26.2418 67.8141 25.9048C68.7518 25.1464 69.5713 23.9464 69.5713 22.24C69.5713 20.208 68.133 19 66.5712 19C65.6366 18.9986 64.7314 19.3052 64.0152 19.8656C63.9477 19.92 63.8825 19.9769 63.8198 20.036L63.8043 20.052L63.7983 20.0568L63.7966 20.06Z" fill="black"/>
<path fill-rule="evenodd" clip-rule="evenodd" d="M65.4759 23.868C64.0076 24.8856 63.213 25.436 63.213 27.52V35H66.9999V30.252C66.9999 28.156 68.1562 26.3936 69.3537 25.1024C70.0754 24.324 70.6137 23.4592 70.9206 22.564C71.4473 21.0355 71.405 19.3857 70.8006 17.8824C70.1945 16.3664 69.0485 15.0296 67.4945 14.0744C65.9414 13.1184 64.0676 12.5976 62.1347 12.6C60.1341 12.6144 58.203 13.1808 56.6224 14.2008C55.0538 15.2144 53.9189 16.6152 53.3549 18.188C53.2863 18.4304 53.1886 18.9976 53.0995 19.62C53.0508 19.9601 53.006 20.3006 52.9649 20.6416L52.9563 20.7056L52.9546 20.7264C52.9375 20.8731 52.8995 21.0147 52.8406 21.1512C52.4403 22.0832 52.016 22.9888 51.6037 23.8712L51.6029 23.8728L51.02 25.1552L50.9806 25.2344L51.4597 25.2848L51.7683 25.3176C52.4369 23.648 54.7658 21.4 57.9998 21.4C59.4664 21.4 60.4144 22.024 61.1619 22.5152C61.6487 22.8352 62.0499 23.1 62.4553 23.1C63.1287 23.1033 63.7886 22.9246 64.3556 22.5856C64.8485 22.2928 65.5882 22.364 65.8496 22.8528C65.9327 23.0064 65.9551 23.1825 65.9129 23.35C65.8708 23.5175 65.7667 23.6658 65.6191 23.7688L65.4759 23.868ZM56.7141 30.2C57.1688 30.2 57.6048 30.3686 57.9263 30.6686C58.2478 30.9687 58.4284 31.3757 58.4284 31.8V35H60.9999V31.4C60.9999 29.9384 60.0836 28.5864 58.557 28.2592C57.2335 27.9752 55.5784 27.8112 54.1426 28.248V29.4C54.1499 29.6012 54.2163 29.7966 54.3346 29.9648C54.3861 30.0336 54.4444 30.0808 54.5164 30.1152C54.5866 30.1496 54.7306 30.2 54.9998 30.2H56.7141ZM54.1083 26.68C56.2007 26.012 58.4524 26.336 59.793 26.652C60.381 26.7904 60.9699 26.3616 60.6536 25.8792C59.9936 24.8712 58.4627 24.2 56.7141 24.2C54.8824 24.2 53.6995 24.9304 53.0498 25.5088C53.5898 25.7048 53.9918 26.1472 54.1083 26.68Z" fill="#00A99D"/>
<path d="M46 66.1098C48.2091 66.1098 50 64.3189 50 62.1098C50 61.5371 49.8796 60.9926 49.6628 60.5L46.0628 55.7C44.5049 53.6228 43.6628 51.0964 43.6628 48.5V46.5M46 63.1099C45.016 62.1259 43.3573 62.3951 42.7351 63.6397L42.3616 64.3865C41.3886 66.3326 38.6114 66.3326 37.6383 64.3865L37.2649 63.6397C36.6426 62.3951 34.9839 62.1259 34 63.1099M34 66.1098C31.7909 66.1098 30 64.3189 30 62.1098C30 61.5371 30.1204 60.9926 30.3371 60.5L33.9372 55.7C35.495 53.6228 36.3372 51.0964 36.3372 48.5V46.5" stroke="#00A99D" stroke-width="1.5" stroke-linecap="round" stroke-linejoin="round"/>
</svg>
