<svg width="80" height="80" viewBox="0 0 80 80" fill="none" xmlns="http://www.w3.org/2000/svg">
<rect width="80" height="80" rx="12" fill="#EDFFFE"/>
<path d="M24 61V52.146C24 50.3141 23.314 48.57 22.3984 46.9833C20.8729 44.3395 20 41.2717 20 38C20 28.0589 28.0589 20 38 20C47.8122 20 55.7906 27.7938 55.9959 38.5735C56.0013 38.8533 56.0587 39.1321 56.1724 39.3878L60 48L56 50C54 57 54.4 59 48 59C41.6 59 41 58 40 55M36 46C36 43.7909 37.7909 42 40 42C42.7614 42 45 39.7614 45 37M45 37C46.6569 37 48 35.6569 48 34C48 32.3431 46.6569 31 45 31C44.5738 31 44.1683 31.0889 43.8011 31.2492C43.9302 30.8561 44 30.4362 44 30C44 27.7909 42.2091 26 40 26C38.1069 26 36.521 27.3151 36.106 29.0815M45 37C44.1115 37 43.3132 36.6137 42.7639 36M28.4393 35.0523C27.0504 35.3149 26 36.5348 26 38C26 39.6569 27.3431 41 29 41C30.3062 41 31.4175 40.1652 31.8293 39M28.4393 35.0523C28.6209 35.018 28.8084 35 29 35M28.4393 35.0523C28.157 34.4261 28 33.7314 28 33C28 30.2386 30.2386 28 33 28C34.1737 28 35.2529 28.4044 36.106 29.0815M36.106 29.0815C37.2599 29.9974 38 31.4123 38 33" stroke="#00A99D" stroke-width="1.5" stroke-linecap="round" stroke-linejoin="round"/>
</svg>
