<svg width="80" height="80" viewBox="0 0 80 80" fill="none" xmlns="http://www.w3.org/2000/svg">
<rect width="80" height="80" rx="12" fill="#EDFFFE"/>
<path d="M40 50V28M40 50C40 45.5817 43.5817 42 48 42M40 50C40 45.5817 36.4183 42 32 42M40 50C40 52 40.2728 52.7405 41 54C42.933 57.348 47.2141 58.4952 50.5622 56.5622C53.6323 54.7897 54.8517 51.0428 53.5427 47.8514C57.2228 47.1325 60 43.8906 60 40C60 35.5817 56.4182 32 52 32L52 28C52 24.6863 49.3137 22 46 22C42.6863 22 40 24.6863 40 28M40 50C40 52 39.7272 52.7405 39 54C37.067 57.348 32.7859 58.4952 29.4378 56.5622C26.3678 54.7897 25.1483 51.0428 26.4574 47.8514C22.7773 47.1325 20.0001 43.8906 20.0001 40C20.0001 35.5817 23.5818 32 28.0001 32L28 28C28 24.6863 30.6863 22 34 22C37.3137 22 40 24.6863 40 28" stroke="#00A99D" stroke-width="1.5" stroke-linecap="round" stroke-linejoin="round"/>
</svg>
