<svg width="80" height="80" viewBox="0 0 80 80" fill="none" xmlns="http://www.w3.org/2000/svg">
<rect width="80" height="80" rx="12" fill="#EDFFFE"/>
<path d="M23.04 36.9999V34.9999H26.88C27.8467 32.5719 29.358 30.5652 31.414 28.9799C33.4687 27.3932 35.7987 26.4465 38.404 26.1399L35.908 23.6279L37.324 22.2139L40.4 25.3939C40.6214 25.6139 40.7647 25.8772 40.83 26.1839C40.8954 26.4905 40.8827 26.7825 40.792 27.0599C40.7027 27.3439 40.544 27.5792 40.316 27.7659C40.088 27.9539 39.8187 28.0552 39.508 28.0699C36.7974 28.1552 34.4774 28.9952 32.548 30.5899C30.6187 32.1819 29.308 34.0565 28.616 36.2139L28.37 36.9979L23.04 36.9999ZM46.344 39.9999C46.344 38.5852 46.664 37.2559 47.304 36.0119C47.944 34.7679 48.8167 33.8819 49.922 33.3539C49.078 32.1232 48.1287 31.1112 47.074 30.3179C46.018 29.5232 44.822 28.9299 43.486 28.5379L44.06 26.6119C45.844 27.1345 47.3887 27.9252 48.694 28.9839C49.9994 30.0439 51.1394 31.4339 52.114 33.1539C53.3594 33.4605 54.376 34.2612 55.164 35.5559C55.9507 36.8492 56.344 38.3305 56.344 39.9999C56.344 41.5412 55.9827 42.9605 55.26 44.2579C54.5374 45.5552 53.4887 46.4305 52.114 46.8839C51.2167 48.5279 50.0794 49.8985 48.702 50.9959C47.3247 52.0932 45.748 52.9039 43.972 53.4279L43.398 51.4999C44.7527 51.0825 45.98 50.4705 47.08 49.6639C48.1814 48.8572 49.128 47.8512 49.92 46.6459C48.944 46.1432 48.104 45.2832 47.4 44.0659C46.696 42.8472 46.344 41.4919 46.344 39.9999ZM37.34 57.8419L35.926 56.4159L38.478 53.8619C35.874 53.5539 33.542 52.6072 31.482 51.0219C29.4247 49.4339 27.9174 47.4265 26.96 44.9999H23.116V42.9999H28.446L28.692 43.7839C29.3854 45.9412 30.696 47.8165 32.624 49.4099C34.552 51.0032 36.872 51.8425 39.584 51.9279C39.8947 51.9425 40.164 52.0452 40.392 52.2359C40.62 52.4279 40.7787 52.6619 40.868 52.9379C40.9587 53.2152 40.9714 53.5052 40.906 53.8079C40.8394 54.1105 40.696 54.3719 40.476 54.5919L37.34 57.8419Z" fill="#00A99D"/>
</svg>
