<svg width="80" height="80" viewBox="0 0 80 80" fill="none" xmlns="http://www.w3.org/2000/svg">
<rect width="80" height="80" rx="12" fill="#EDFFFE"/>
<path d="M53.0148 20L45.4792 27.5355C43.9171 29.0976 41.3798 28.9478 39.265 28.3089C37.132 27.6645 34.9589 28.0466 33.622 29.3835C31.3858 31.6196 31.4726 35.3319 33.8157 37.675C36.1589 40.0182 38.5895 37.5711 40.5 39.4852C42.4074 41.3962 39.9578 43.8171 42.301 46.1603C44.6441 48.5034 48.3564 48.5902 50.5925 46.3541C51.9207 45.0259 52.3511 42.9171 51.7566 40.8299C51.1514 38.7053 50.9882 36.1687 52.5503 34.6066L60.0858 27.0711M27.0711 59.9761L32.1715 54.8452C33.7323 53.2752 36.2851 53.4334 38.4253 53.9993C40.6042 54.5754 42.8847 54.0746 44.4639 52.5926C45.8221 51.3178 46.336 49.6409 46.1312 48M20 52.905L25.1377 47.8283C26.7157 46.269 26.5575 43.7104 25.995 41.5644C25.4269 39.397 25.9443 37.1428 27.4933 35.622C28.795 34.344 30.4156 33.8189 32.0001 33.9702" stroke="#00A99D" stroke-width="1.5" stroke-linecap="round" stroke-linejoin="round"/>
</svg>
