<svg width="80" height="80" viewBox="0 0 80 80" fill="none" xmlns="http://www.w3.org/2000/svg">
<rect width="80" height="80" rx="12" fill="#EDFFFE"/>
<path d="M62.4501 37.5244H52.05C52.05 40.707 50.7858 43.7593 48.5353 46.0097C46.2849 48.2601 43.2326 49.5244 40.05 49.5244C36.8675 49.5244 33.8152 48.2601 31.5648 46.0097C29.3143 43.7593 28.05 40.707 28.05 37.5244H17.55" stroke="#00A99D" stroke-width="1.5" stroke-linecap="round" stroke-linejoin="round"/>
<path d="M32.55 36.0243C32.55 38.0134 33.3402 39.9211 34.7467 41.3276C36.1533 42.7341 38.0609 43.5243 40.05 43.5243C42.0392 43.5243 43.9468 42.7341 45.3533 41.3276C46.7599 39.9211 47.55 38.0134 47.55 36.0243C47.55 30.7143 41.676 28.9283 43.444 20.2703C43.5076 19.9668 43.4755 19.651 43.3522 19.3665C43.2289 19.082 43.0205 18.8426 42.7556 18.6815C42.4907 18.5203 42.1823 18.4451 41.8729 18.4664C41.5636 18.4877 41.2684 18.6044 41.028 18.8003C38.5325 20.9564 36.496 23.5922 35.0395 26.5512C33.5831 29.5101 32.7365 32.7316 32.55 36.0243Z" stroke="#00A99D" stroke-width="1.5" stroke-linecap="round" stroke-linejoin="round"/>
<path d="M19.05 60.7744C18.8511 60.7744 18.6604 60.6954 18.5197 60.5547C18.3791 60.4141 18.3 60.2233 18.3 60.0244C18.3 59.8255 18.3791 59.6347 18.5197 59.4941C18.6604 59.3534 18.8511 59.2744 19.05 59.2744M19.05 60.7744C19.249 60.7744 19.4397 60.6954 19.5804 60.5547C19.721 60.4141 19.8 60.2233 19.8 60.0244C19.8 59.8255 19.721 59.6347 19.5804 59.4941C19.4397 59.3534 19.249 59.2744 19.05 59.2744M32.55 60.7744C32.3511 60.7744 32.1604 60.6954 32.0197 60.5547C31.8791 60.4141 31.8 60.2233 31.8 60.0244C31.8 59.8255 31.8791 59.6347 32.0197 59.4941C32.1604 59.3534 32.3511 59.2744 32.55 59.2744M32.55 60.7744C32.749 60.7744 32.9397 60.6954 33.0804 60.5547C33.221 60.4141 33.3 60.2233 33.3 60.0244C33.3 59.8255 33.221 59.6347 33.0804 59.4941C32.9397 59.3534 32.749 59.2744 32.55 59.2744M47.55 60.7744C47.3511 60.7744 47.1604 60.6954 47.0197 60.5547C46.8791 60.4141 46.8 60.2233 46.8 60.0244C46.8 59.8255 46.8791 59.6347 47.0197 59.4941C47.1604 59.3534 47.3511 59.2744 47.55 59.2744M47.55 60.7744C47.749 60.7744 47.9397 60.6954 48.0804 60.5547C48.221 60.4141 48.3 60.2233 48.3 60.0244C48.3 59.8255 48.221 59.6347 48.0804 59.4941C47.9397 59.3534 47.749 59.2744 47.55 59.2744M61.05 60.7744C60.8511 60.7744 60.6604 60.6954 60.5197 60.5547C60.3791 60.4141 60.3 60.2233 60.3 60.0244C60.3 59.8255 60.3791 59.6347 60.5197 59.4941C60.6604 59.3534 60.8511 59.2744 61.05 59.2744M61.05 60.7744C61.249 60.7744 61.4397 60.6954 61.5804 60.5547C61.721 60.4141 61.8 60.2233 61.8 60.0244C61.8 59.8255 61.721 59.6347 61.5804 59.4941C61.4397 59.3534 61.249 59.2744 61.05 59.2744M61.05 45.7744C60.8511 45.7744 60.6604 45.6954 60.5197 45.5547C60.3791 45.4141 60.3 45.2233 60.3 45.0244C60.3 44.8255 60.3791 44.6347 60.5197 44.4941C60.6604 44.3534 60.8511 44.2744 61.05 44.2744M61.05 45.7744C61.249 45.7744 61.4397 45.6954 61.5804 45.5547C61.721 45.4141 61.8 45.2233 61.8 45.0244C61.8 44.8255 61.721 44.6347 61.5804 44.4941C61.4397 44.3534 61.249 44.2744 61.05 44.2744M55.05 53.2744C54.8511 53.2744 54.6604 53.1954 54.5197 53.0547C54.3791 52.9141 54.3 52.7233 54.3 52.5244C54.3 52.3255 54.3791 52.1347 54.5197 51.9941C54.6604 51.8534 54.8511 51.7744 55.05 51.7744M55.05 53.2744C55.249 53.2744 55.4397 53.1954 55.5804 53.0547C55.721 52.9141 55.8 52.7233 55.8 52.5244C55.8 52.3255 55.721 52.1347 55.5804 51.9941C55.4397 51.8534 55.249 51.7744 55.05 51.7744M25.05 53.2744C24.8511 53.2744 24.6604 53.1954 24.5197 53.0547C24.3791 52.9141 24.3 52.7233 24.3 52.5244C24.3 52.3255 24.3791 52.1347 24.5197 51.9941C24.6604 51.8534 24.8511 51.7744 25.05 51.7744M25.05 53.2744C25.249 53.2744 25.4397 53.1954 25.5804 53.0547C25.721 52.9141 25.8 52.7233 25.8 52.5244C25.8 52.3255 25.721 52.1347 25.5804 51.9941C25.4397 51.8534 25.249 51.7744 25.05 51.7744M19.05 45.7744C18.8511 45.7744 18.6604 45.6954 18.5197 45.5547C18.3791 45.4141 18.3 45.2233 18.3 45.0244C18.3 44.8255 18.3791 44.6347 18.5197 44.4941C18.6604 44.3534 18.8511 44.2744 19.05 44.2744M19.05 45.7744C19.249 45.7744 19.4397 45.6954 19.5804 45.5547C19.721 45.4141 19.8 45.2233 19.8 45.0244C19.8 44.8255 19.721 44.6347 19.5804 44.4941C19.4397 44.3534 19.249 44.2744 19.05 44.2744" stroke="#00A99D" stroke-width="1.5"/>
</svg>
