<svg width="80" height="80" viewBox="0 0 80 80" fill="none" xmlns="http://www.w3.org/2000/svg">
<rect width="80" height="80" rx="12" fill="#EDFFFE"/>
<path d="M35 51.5C34.6022 51.5 34.2206 51.658 33.9393 51.9393C33.658 52.2206 33.5 52.6022 33.5 53C33.5 53.3978 33.658 53.7794 33.9393 54.0607C34.2206 54.342 34.6022 54.5 35 54.5V51.5ZM45 54.5C45.3978 54.5 45.7794 54.342 46.0607 54.0607C46.342 53.7794 46.5 53.3978 46.5 53C46.5 52.6022 46.342 52.2206 46.0607 51.9393C45.7794 51.658 45.3978 51.5 45 51.5V54.5ZM38.5 60C38.5 60.3978 38.658 60.7794 38.9393 61.0607C39.2206 61.342 39.6022 61.5 40 61.5C40.3978 61.5 40.7794 61.342 41.0607 61.0607C41.342 60.7794 41.5 60.3978 41.5 60H38.5ZM38.5 48V53H41.5V48H38.5ZM40 51.5H35V54.5H40V51.5ZM45 51.5H40V54.5H45V51.5ZM38.5 53V60H41.5V53H38.5Z" fill="#00A99D"/>
<path d="M54 34C54 35.8385 53.6379 37.659 52.9343 39.3576C52.2307 41.0561 51.1995 42.5995 49.8995 43.8995C48.5995 45.1995 47.0561 46.2307 45.3576 46.9343C43.659 47.6379 41.8385 48 40 48C38.1615 48 36.341 47.6379 34.6424 46.9343C32.9439 46.2307 31.4005 45.1995 30.1005 43.8995C28.8005 42.5995 27.7693 41.0561 27.0657 39.3576C26.3621 37.659 26 35.8385 26 34C26 30.287 27.475 26.726 30.1005 24.1005C32.726 21.475 36.287 20 40 20C43.713 20 47.274 21.475 49.8995 24.1005C52.525 26.726 54 30.287 54 34Z" stroke="#00A99D" stroke-width="1.5"/>
</svg>
