<svg width="16" height="15" viewBox="0 0 16 15" fill="none" xmlns="http://www.w3.org/2000/svg">
<path fill-rule="evenodd" clip-rule="evenodd" d="M11.5156 0.75C10.0637 0.75 8.79242 1.37437 8 2.42977C7.20758 1.37437 5.93633 0.75 4.48438 0.75C2.07788 0.752712 0.127712 2.70288 0.125 5.10938C0.125 10.0312 7.42273 14.0152 7.73352 14.1797C7.8999 14.2692 8.1001 14.2692 8.26648 14.1797C8.57727 14.0152 15.875 10.0312 15.875 5.10938C15.8723 2.70288 13.9221 0.752712 11.5156 0.75ZM8 13.0406C6.71609 12.2925 1.25 8.88445 1.25 5.10938C1.25232 3.32404 2.69904 1.87732 4.48438 1.875C5.85195 1.875 7.00016 2.60344 7.47969 3.77344C7.56636 3.98444 7.77189 4.12221 8 4.12221C8.22811 4.12221 8.43364 3.98444 8.52031 3.77344C8.99984 2.60133 10.148 1.875 11.5156 1.875C13.301 1.87732 14.7477 3.32404 14.75 5.10938C14.75 8.87883 9.2825 12.2918 8 13.0406Z" fill="#494949"/>
</svg>
