<svg width="16" height="17" viewBox="0 0 16 17" fill="none" xmlns="http://www.w3.org/2000/svg">
<path d="M8.49519 3.08577L9.91809 5.96853C9.95768 6.04874 10.0162 6.11813 10.0886 6.1707C10.1609 6.22328 10.245 6.25746 10.3335 6.27032L13.5148 6.73267C13.6167 6.74746 13.7124 6.79048 13.7911 6.85686C13.8699 6.92324 13.9284 7.01032 13.9602 7.10826C13.992 7.20619 13.9958 7.31108 13.9711 7.41104C13.9464 7.51101 13.8942 7.60206 13.8204 7.67391L11.5181 9.91777C11.3879 10.0447 11.3288 10.2273 11.3592 10.406L11.9026 13.5746C11.92 13.6761 11.9087 13.7804 11.8699 13.8757C11.8311 13.9711 11.7664 14.0537 11.6831 14.1142C11.5998 14.1747 11.5013 14.2106 11.3986 14.2181C11.2959 14.2255 11.1932 14.204 11.1021 14.1561L8.25629 12.6598C8.17706 12.6183 8.08893 12.5966 7.99946 12.5966C7.91 12.5966 7.82186 12.6183 7.74264 12.6598L4.89684 14.1561C4.80573 14.204 4.70303 14.2255 4.60035 14.2181C4.49768 14.2106 4.39913 14.1747 4.31584 14.1142C4.23255 14.0537 4.16785 13.9711 4.12905 13.8757C4.09026 13.7804 4.07891 13.6761 4.09629 13.5746L4.63974 10.406C4.65487 10.3179 4.64831 10.2273 4.62063 10.1423C4.59294 10.0572 4.54497 9.98015 4.48084 9.91777L2.1785 7.67391C2.10473 7.60206 2.05254 7.51101 2.02784 7.41104C2.00313 7.31108 2.00689 7.20619 2.03869 7.10826C2.0705 7.01032 2.12908 6.92324 2.2078 6.85686C2.28652 6.79048 2.38225 6.74746 2.48415 6.73267L5.6654 6.27032C5.75392 6.25746 5.838 6.22328 5.91037 6.1707C5.98274 6.11813 6.04125 6.04874 6.08084 5.96853L7.50374 3.08577C7.70788 2.67584 8.29271 2.67584 8.49519 3.08577Z" fill="#FFC400"/>
</svg>
