<svg width="48" height="48" viewBox="0 0 48 48" fill="none" xmlns="http://www.w3.org/2000/svg">
<path d="M25.06 40.8402H12.42C6.1 40.8402 4 36.6402 4 32.4202V15.5802C4 9.26016 6.1 7.16016 12.42 7.16016H25.06C31.38 7.16016 33.48 9.26016 33.48 15.5802V32.4202C33.48 38.7402 31.36 40.8402 25.06 40.8402Z" stroke="#494949" stroke-width="1.5" stroke-linecap="round" stroke-linejoin="round"/>
<path d="M39.04 34.2003L33.48 30.3003V17.6803L39.04 13.7803C41.76 11.8803 44 13.0403 44 16.3803V31.6203C44 34.9603 41.76 36.1203 39.04 34.2003Z" stroke="#494949" stroke-width="1.5" stroke-linecap="round" stroke-linejoin="round"/>
<path d="M23 22C24.6569 22 26 20.6569 26 19C26 17.3431 24.6569 16 23 16C21.3431 16 20 17.3431 20 19C20 20.6569 21.3431 22 23 22Z" stroke="#494949" stroke-width="1.5" stroke-linecap="round" stroke-linejoin="round"/>
</svg>
