<svg width="82" height="40" viewBox="0 0 82 40" fill="none" xmlns="http://www.w3.org/2000/svg">
<g clip-path="url(#clip0_531_1244)">
<path d="M54.7223 23.965C54.7223 23.4312 54.2534 23.1387 53.5461 22.93C52.8261 22.7287 51.9574 22.7012 50.7684 22.7012H45.4973V27.4012H47.8061V25.69H50.2764C51.0887 25.69 51.5986 25.73 51.9036 25.8987C52.3161 26.1137 52.2649 26.53 52.2649 26.8175V27.3975H54.5071V26.4725C54.5071 26.0562 54.4558 25.8475 54.1483 25.6125C53.8464 25.4363 53.4549 25.3018 53.0131 25.2225L53.0772 25.2087C53.705 25.0925 54.7223 24.7137 54.7223 23.965ZM51.7447 24.6412L51.6499 24.635C51.3424 24.7262 50.9836 24.7337 50.5147 24.7337H47.7549V23.685H50.5711C50.9836 23.685 51.3834 23.685 51.7062 23.77C51.8675 23.808 52.0017 23.8686 52.0917 23.9442C52.1817 24.0197 52.2232 24.1066 52.2111 24.1937C52.2111 24.395 52.0496 24.55 51.7575 24.6425L51.7447 24.6412ZM69.3491 26.3937H64.9185V27.3975H69.3772C71.6835 27.3975 72.9647 26.9337 72.9647 25.9262C72.9647 25.4562 72.7392 25.1762 72.3267 24.9562C71.8065 24.735 70.9762 24.63 69.8334 24.6112L68.5496 24.585C68.1908 24.585 67.9371 24.585 67.6706 24.5337C67.5185 24.5105 67.3862 24.4636 67.2941 24.4001C67.202 24.3367 67.1551 24.2602 67.1607 24.1825C67.1607 24.0325 67.2145 23.9087 67.4682 23.8375C67.7532 23.7598 68.0776 23.7234 68.4035 23.7325H72.5932V22.7312H67.9884C65.5873 22.7312 64.7186 23.46 64.7186 24.1312C64.7186 25.635 67.3631 25.5562 69.5259 25.5825C69.8718 25.5825 70.1383 25.6075 70.2844 25.6787C70.4458 25.7325 70.5637 25.855 70.5637 25.9787C70.5637 26.1087 70.4432 26.2325 70.2972 26.2787C70.0999 26.3687 69.7924 26.395 69.3516 26.395L69.3491 26.3937ZM0.000119141 0V16.83L2.76506 13.6987H8.74337L9.51468 14.4737V13.6987H16.4949L18.0299 15.3975L19.5264 13.7125H41.7484C42.7503 13.7125 43.6549 13.8087 44.3237 14.1087V13.7237H50.4352V14.1087C51.4731 13.8225 52.7697 13.7237 54.2508 13.7237H63.1504L63.9806 14.4987V13.7237H70.5329L71.3965 14.4987V13.7175H77.7515V20.3012H71.3042L70.0768 19.2975V20.2737H62.028L61.1593 19.225H59.158L58.2381 20.2462H54.0996C52.4571 20.2462 51.2296 20.0775 50.4019 19.85V20.2462H40.5235V18.7762C40.5235 18.575 40.4312 18.575 40.1776 18.5475H39.8162V20.2725H20.7179V19.4787L19.9979 20.2725H16.0209L15.3264 19.4787V20.2525H7.62612L6.75743 19.2112H4.76893L3.90537 20.2525H-0.00756836V39.9987H81.257V28.15C80.3371 28.3762 79.1634 28.4487 77.9334 28.4487H72.0499V28.025C71.3299 28.2987 70.1024 28.4487 68.9262 28.4487H50.2533V26.9525C50.2533 26.7512 50.1841 26.7512 49.8407 26.7512H49.5871V28.4562H43.4345V26.68C42.4197 26.9087 41.2307 26.9262 40.257 26.9087H39.5369V28.4325H32.0929L30.2376 27.4025L28.2876 28.4062H16.1951V21.8562H28.5284L30.3017 22.86L32.1979 21.8562H40.4312C41.3922 21.8562 42.9527 21.91 43.6472 22.235V21.8312H51.081C51.7754 21.8312 53.2847 21.91 54.1765 22.2075V21.8112H65.3208V22.2075C65.882 21.9337 67.071 21.8112 68.0704 21.8112H74.5279V22.2075C75.1967 21.9612 76.1166 21.8112 77.3979 21.8112H81.4159V0.00125L0.000119141 0ZM72.2831 24.9212C72.2959 24.935 72.2959 24.9475 72.3113 24.955C72.3523 24.9662 72.4036 24.9662 72.4317 24.9862L72.2857 24.9275L72.2831 24.9212ZM81.4133 21.8037H81.6414V22.7287H81.4133V21.8037ZM81.5312 25.0512V25.0375C81.4389 24.9987 81.3851 24.9612 81.2775 24.9212C80.7727 24.6675 79.9424 24.5625 78.674 24.55L77.4337 24.5312C77.034 24.5312 76.7803 24.5175 76.5138 24.48C76.3619 24.4566 76.2299 24.4096 76.1378 24.3462C76.0457 24.2828 75.9987 24.2064 76.0039 24.1287C76.0039 23.9787 76.1089 23.86 76.3114 23.7887C76.5651 23.7175 76.8162 23.705 77.2313 23.705H81.4107L81.4133 22.7287H77.034C74.6688 22.7287 73.7514 23.4575 73.7514 24.1287C73.7514 25.625 76.419 25.5537 78.5689 25.58C78.9302 25.58 79.1839 25.5987 79.33 25.6762C79.4914 25.73 79.5965 25.8525 79.5965 25.9762C79.5946 26.0343 79.566 26.0914 79.5127 26.1433C79.4595 26.1952 79.383 26.2407 79.289 26.2762C79.1276 26.3662 78.8201 26.3925 78.3691 26.3925H73.9616V27.4012H78.3562C79.7938 27.4012 80.8649 27.2062 81.4389 26.8025H81.5312C81.8387 26.5737 82.0001 26.3012 82.0001 25.9312C82.0001 25.5262 81.8387 25.28 81.5312 25.0512ZM63.5424 23.6787V22.7087H55.9062V27.4287H63.5424V26.4525H58.174V25.5087H63.4092V24.5325H58.174V23.6862L63.5424 23.6787ZM46.1661 14.6412H48.5006V19.3362H46.1661V14.6412ZM44.8439 15.905L44.8157 15.9187C44.8157 15.39 44.3749 15.085 43.6549 14.8775C42.9194 14.6687 42.0559 14.6487 40.8951 14.6487H35.6368V19.3487H37.9431V17.6237H40.4005C41.2128 17.6237 41.7356 17.675 42.0687 17.825C42.4864 18.0537 42.43 18.4562 42.43 18.7362V19.33H44.7388V18.4112C44.7388 17.995 44.685 17.7862 44.3621 17.545C44.0606 17.3719 43.6759 17.2379 43.2423 17.155C43.7359 17.0486 44.1533 16.8728 44.4413 16.6502C44.7293 16.4276 44.8748 16.1681 44.8592 15.905H44.8439ZM41.9226 16.5637H41.8816C41.5613 16.6537 41.2128 16.66 40.7464 16.66H37.9302V15.6187H40.7464C41.159 15.6187 41.5587 15.625 41.8662 15.7037C42.1737 15.7687 42.3864 15.9187 42.3864 16.12C42.3864 16.3212 42.225 16.485 41.9226 16.5637ZM54.3994 15.6187H56.5494V14.6225H54.3456C52.7697 14.6225 51.6089 14.7987 50.8632 15.1712C49.8894 15.6712 49.6332 16.3225 49.6332 17.0262C49.6332 17.88 50.0457 18.4125 50.8632 18.81C51.6499 19.2062 53.0644 19.3312 54.1714 19.3312H56.8441L57.7127 18.2825H62.4611L63.3554 19.3312H67.9986V15.815L72.3523 19.3312H75.6092V14.6425H73.2594V17.9175L69.2312 14.6487H65.7462V18.9975L61.8742 14.5712H58.4431L55.2271 18.2762H54.1996C53.6025 18.2762 52.9593 18.225 52.6006 18.0475C52.1726 17.8012 51.9727 17.4487 51.9727 16.9475C51.9727 16.4725 52.2392 16.0937 52.6262 15.8987C53.0797 15.67 53.5615 15.6187 54.3892 15.6187H54.3994ZM60.0984 15.4437L61.6744 17.305V17.3112H58.4969L60.0984 15.4437ZM8.12837 18.2812L8.99706 19.33H13.6685V15.6587L16.9921 19.33H18.9806L22.3016 15.6587L22.3554 19.33H24.7154V14.6487H20.8999L18.1503 17.8187L15.1496 14.6425H11.4263V19.0825L7.52874 14.6425H4.12574L0.0436816 19.3312H2.49599L3.37749 18.29H8.13093L8.12837 18.2812ZM5.77856 15.4437L7.35449 17.305L7.34168 17.3112H4.21799L5.77856 15.4437ZM40.5056 22.7012H33.1947L30.2837 24.2375L27.4676 22.7012H18.2733V27.4012H27.3343L30.2556 25.8462L33.0743 27.3962H37.5151V25.8325H40.3851C42.4274 25.8325 44.3749 25.5587 44.3749 24.2575L44.3621 24.2512C44.3621 22.95 42.3224 22.7012 40.5056 22.7012ZM26.2119 26.42H20.5667V25.4887H25.5816V24.5325H20.5667V23.6862H26.3042L28.8154 25.0525L26.1991 26.4262L26.2119 26.42ZM35.2319 26.9737L31.7085 25.0587L35.2319 23.2175V26.9737ZM40.5312 24.8762H37.5151V23.6775H40.5312C41.3589 23.6775 41.9739 23.8412 41.9739 24.2512C41.9739 24.6612 41.4691 24.8762 40.5312 24.8762ZM34.0609 15.6187V14.6425H26.4118V19.3375H34.0609V18.3675H28.6924V17.4287H33.9122V16.465H28.6924V15.6187H34.0609Z" fill="#CFE3F2"/>
</g>
<defs>
<clipPath id="clip0_531_1244">
<rect width="82" height="40" rx="20" fill="white"/>
</clipPath>
</defs>
</svg>
