<svg width="82" height="40" viewBox="0 0 82 40" fill="none" xmlns="http://www.w3.org/2000/svg">
<rect width="82" height="40" rx="20" fill="white"/>
<g clip-path="url(#clip0_531_1238)">
<path d="M11.0929 14.235H8.08252V24.6535H11.0771C12.666 24.6535 13.8151 24.28 14.8232 23.4514C16.0191 22.4672 16.7284 20.9831 16.7284 19.4492C16.7284 16.3733 14.4126 14.235 11.0929 14.235ZM13.4869 22.0599C12.8397 22.6393 12.0063 22.8898 10.6819 22.8898H10.1317V15.9992H10.6819C12.0063 15.9992 12.8077 16.2338 13.4869 16.8423C14.1953 17.4673 14.6177 18.435 14.6177 19.4344C14.6177 20.4359 14.1953 21.4374 13.4869 22.0599ZM17.6738 24.6535H19.7198V14.235H17.674L17.6738 24.6535ZM24.7286 18.2314C23.4989 17.7794 23.1371 17.4812 23.1371 16.9209C23.1371 16.2642 23.7814 15.7647 24.6645 15.7647C25.2785 15.7647 25.7822 16.0145 26.3191 16.6064L27.3884 15.2182C26.5067 14.4511 25.4521 14.0611 24.3016 14.0611C22.4456 14.0611 21.0275 15.3428 21.0275 17.0439C21.0275 18.4824 21.6883 19.2159 23.6098 19.9051C24.4131 20.1848 24.8215 20.3714 25.0267 20.499C25.436 20.7646 25.6416 21.1382 25.6416 21.5753C25.6416 22.4202 24.964 23.0442 24.0495 23.0442C23.0732 23.0442 22.2868 22.5604 21.8143 21.6545L20.4932 22.9213C21.436 24.2941 22.5699 24.9053 24.1302 24.9053C26.2556 24.9053 27.7504 23.4975 27.7504 21.4828C27.7504 19.8265 27.0595 19.0761 24.7286 18.2314ZM28.3957 19.4493C28.3957 22.5146 30.8212 24.8886 33.9394 24.8886C34.821 24.8886 35.5767 24.7157 36.5066 24.2799V21.8884C35.6868 22.7016 34.9623 23.0288 34.0329 23.0288C31.9709 23.0288 30.5056 21.5443 30.5056 19.4344C30.5056 17.4357 32.0167 15.8576 33.9394 15.8576C34.9141 15.8576 35.6553 16.201 36.5066 17.029V14.6377C35.6092 14.1862 34.8679 14 33.9862 14C30.8838 14 28.3957 16.4219 28.3957 19.4493ZM53.1008 21.2334L50.298 14.235H48.062L52.5196 24.9197H53.6208L58.1562 14.2348H55.9368L53.1008 21.2334ZM59.0872 24.6536H64.8964V22.8898H61.1338V20.0757H64.7524V18.3116H61.1338V15.9991H64.8964V14.2351H59.0871L59.0872 24.6536ZM73.0032 17.3097C73.0032 15.358 71.651 14.235 69.2877 14.235H66.2485V24.6535H68.2975V20.4662H68.5656L71.3983 24.6535H73.9176L70.609 20.265C72.1543 19.9514 73.0032 18.9042 73.0032 17.3097ZM68.8934 19.0303H68.2975V15.8733H68.9261C70.2042 15.8733 70.8967 16.4061 70.8967 17.42C70.8967 18.4659 70.2042 19.0303 68.8934 19.0303Z" fill="#0B1015"/>
<path d="M42.8507 14.0459C39.7592 14.0459 37.251 16.4247 37.251 19.3606C37.251 22.4821 39.6503 24.8154 42.8507 24.8154C45.9712 24.8154 48.4351 22.4511 48.4351 19.4219C48.4351 16.4106 45.9877 14.0459 42.8507 14.0459Z" fill="url(#paint0_linear_531_1238)"/>
<g filter="url(#filter0_i_531_1238)">
<path d="M42.8507 14.0459C39.7592 14.0459 37.251 16.4247 37.251 19.3606C37.251 22.4821 39.6503 24.8154 42.8507 24.8154C45.9712 24.8154 48.4351 22.4511 48.4351 19.4219C48.4351 16.4106 45.9877 14.0459 42.8507 14.0459Z" fill="#FE0404"/>
</g>
</g>
<defs>
<filter id="filter0_i_531_1238" x="37.251" y="14.0459" width="12.6841" height="12.2695" filterUnits="userSpaceOnUse" color-interpolation-filters="sRGB">
<feFlood flood-opacity="0" result="BackgroundImageFix"/>
<feBlend mode="normal" in="SourceGraphic" in2="BackgroundImageFix" result="shape"/>
<feColorMatrix in="SourceAlpha" type="matrix" values="0 0 0 0 0 0 0 0 0 0 0 0 0 0 0 0 0 0 127 0" result="hardAlpha"/>
<feOffset dx="1.5" dy="1.5"/>
<feGaussianBlur stdDeviation="2"/>
<feComposite in2="hardAlpha" operator="arithmetic" k2="-1" k3="1"/>
<feColorMatrix type="matrix" values="0 0 0 0 0 0 0 0 0 0 0 0 0 0 0 0 0 0 0.5 0"/>
<feBlend mode="normal" in2="shape" result="effect1_innerShadow_531_1238"/>
</filter>
<linearGradient id="paint0_linear_531_1238" x1="254.38" y1="111.65" x2="998.058" y2="909.069" gradientUnits="userSpaceOnUse">
<stop stop-color="#F34F26"/>
<stop offset="1" stop-color="#F69E35"/>
</linearGradient>
<clipPath id="clip0_531_1238">
<rect width="66" height="10.9197" fill="white" transform="translate(8 14)"/>
</clipPath>
</defs>
</svg>
