<svg width="48" height="48" viewBox="0 0 48 48" fill="none" xmlns="http://www.w3.org/2000/svg">
<g filter="url(#filter0_i_756_1464)">
<rect width="48" height="48" rx="24" fill="#E23F3F"/>
<rect x="0.5" y="0.5" width="47" height="47" rx="23.5" stroke="#F7F7F7"/>
<path d="M12.4741 26.5739C12.2196 26.3193 12.0145 26.0011 11.8801 25.6263C11.7458 25.2516 11.6609 24.8556 11.6397 24.4243C11.6044 23.6959 11.7104 23.0383 11.965 22.4302C12.2125 21.8292 12.5802 21.2776 13.0752 20.7827C13.7964 20.0614 14.7369 19.4604 15.8965 18.9937C17.0562 18.527 18.336 18.1805 19.729 17.9613C21.1362 17.7421 22.5645 17.629 24.0282 17.6219C25.492 17.629 26.9203 17.7421 28.3133 17.9613C29.6992 18.1876 30.972 18.527 32.1105 18.9866C33.256 19.4533 34.1964 20.0543 34.9318 20.7897C35.4127 21.2706 35.7874 21.815 36.042 22.409C36.3036 23.0101 36.4309 23.6747 36.4097 24.4031C36.4026 25.3011 36.1268 26.0153 35.6036 26.5385C35.4056 26.7365 35.1652 26.8921 34.9035 26.984C34.6348 27.083 34.3449 27.1183 34.0338 27.0618L30.0811 26.39C29.777 26.3405 29.5225 26.2698 29.3033 26.1779C29.0911 26.093 28.9073 25.9799 28.7729 25.8455C28.6032 25.6758 28.483 25.4566 28.4194 25.195C28.3487 24.9405 28.3133 24.6364 28.3133 24.297L28.2921 23.201C28.2921 23.0454 28.2355 22.9181 28.1224 22.805C28.0658 22.7484 28.0092 22.706 27.9385 22.6636C27.8608 22.6282 27.7971 22.607 27.7405 22.5787C27.3799 22.4726 26.8567 22.3878 26.1778 22.3312C25.4919 22.2817 24.7778 22.2464 24.0353 22.2393C23.2787 22.2464 22.5645 22.2676 21.8716 22.3242C21.1927 22.3807 20.6766 22.4726 20.3089 22.5858C20.2594 22.607 20.1957 22.6282 20.125 22.6565C20.0472 22.6919 19.9836 22.7414 19.9199 22.805C19.7997 22.9252 19.7502 23.0595 19.7502 23.2151L19.7432 24.2828C19.7432 24.6364 19.7078 24.9405 19.63 25.1879C19.5664 25.4496 19.4533 25.6617 19.2765 25.8385C19.1421 25.9728 18.9724 26.086 18.7532 26.1779C18.534 26.2698 18.2795 26.3405 17.9825 26.3971L13.9803 27.0759C13.6691 27.1325 13.3934 27.1113 13.1388 27.0123C12.8913 26.9062 12.6721 26.7719 12.4741 26.5739Z" stroke="white" stroke-width="1.5" stroke-miterlimit="10"/>
</g>
<defs>
<filter id="filter0_i_756_1464" x="0" y="0" width="48" height="48" filterUnits="userSpaceOnUse" color-interpolation-filters="sRGB">
<feFlood flood-opacity="0" result="BackgroundImageFix"/>
<feBlend mode="normal" in="SourceGraphic" in2="BackgroundImageFix" result="shape"/>
<feColorMatrix in="SourceAlpha" type="matrix" values="0 0 0 0 0 0 0 0 0 0 0 0 0 0 0 0 0 0 127 0" result="hardAlpha"/>
<feMorphology radius="4" operator="erode" in="SourceAlpha" result="effect1_innerShadow_756_1464"/>
<feOffset/>
<feGaussianBlur stdDeviation="10"/>
<feComposite in2="hardAlpha" operator="arithmetic" k2="-1" k3="1"/>
<feColorMatrix type="matrix" values="0 0 0 0 1 0 0 0 0 1 0 0 0 0 1 0 0 0 0.08 0"/>
<feBlend mode="normal" in2="shape" result="effect1_innerShadow_756_1464"/>
</filter>
</defs>
</svg>
