<svg width="82" height="40" viewBox="0 0 82 40" fill="none" xmlns="http://www.w3.org/2000/svg">
<rect width="82" height="40" rx="20" fill="white"/>
<g clip-path="url(#clip0_531_1231)">
<path d="M26.999 36.8313V34.581C26.999 33.7182 26.4707 33.1558 25.5651 33.1558C25.1123 33.1558 24.6218 33.3058 24.2822 33.7934C24.0182 33.3808 23.6409 33.1558 23.0749 33.1558C22.6975 33.1558 22.3204 33.2682 22.0184 33.6808V33.2308H21.2261V36.8313H22.0184V34.8435C22.0184 34.206 22.358 33.9058 22.8864 33.9058C23.4144 33.9058 23.6787 34.2434 23.6787 34.8435V36.8313H24.4711V34.8435C24.4711 34.206 24.8482 33.9058 25.3387 33.9058C25.867 33.9058 26.131 34.2434 26.131 34.8435V36.8313H26.999ZM38.7331 33.2308H37.4504V32.1431H36.658V33.2308H35.9412V33.9432H36.6579V35.5937C36.6579 36.4189 36.9975 36.9063 37.9031 36.9063C38.2427 36.9063 38.6198 36.7939 38.8842 36.6439L38.6576 35.9687C38.4313 36.1187 38.1673 36.1563 37.9786 36.1563C37.6013 36.1563 37.4504 35.9313 37.4504 35.5561V33.9432H38.7331V33.2308ZM45.4493 33.1556C44.9966 33.1556 44.6947 33.3808 44.506 33.6808V33.2308H43.7137V36.8313H44.506V34.806C44.506 34.206 44.77 33.8684 45.2606 33.8684C45.4115 33.8684 45.6002 33.906 45.7511 33.9434L45.9775 33.1933C45.8265 33.1558 45.6002 33.1558 45.4493 33.1558M35.2997 33.531C34.9223 33.2683 34.3941 33.1559 33.8281 33.1559C32.9227 33.1559 32.3191 33.606 32.3191 34.3186C32.3191 34.9188 32.7718 35.2562 33.5641 35.3688L33.9414 35.4064C34.3565 35.4813 34.5828 35.5938 34.5828 35.7814C34.5828 36.0439 34.281 36.2315 33.7527 36.2315C33.2243 36.2315 32.8094 36.0439 32.5452 35.8564L32.168 36.4565C32.5831 36.7565 33.149 36.9065 33.7149 36.9065C34.7714 36.9065 35.3752 36.4191 35.3752 35.7439C35.3752 35.1062 34.8846 34.7686 34.1299 34.6562L33.7527 34.6186C33.413 34.581 33.149 34.5062 33.149 34.2812C33.149 34.0186 33.413 33.8686 33.8281 33.8686C34.281 33.8686 34.7337 34.056 34.9601 34.1686L35.2997 33.531ZM56.3535 33.1559C55.9007 33.1559 55.5988 33.3809 55.4101 33.681V33.2309H54.6178V36.8315H55.4101V34.8062C55.4101 34.2062 55.6743 33.8686 56.1647 33.8686C56.3157 33.8686 56.5044 33.9061 56.6554 33.9436L56.8817 33.1935C56.7308 33.1559 56.5045 33.1559 56.3535 33.1559ZM46.2416 35.0312C46.2416 36.1189 46.9962 36.9065 48.1659 36.9065C48.6941 36.9065 49.0714 36.7941 49.4486 36.4941L49.0714 35.8564C48.7696 36.0815 48.4677 36.1939 48.1281 36.1939C47.4867 36.1939 47.034 35.7439 47.034 35.0312C47.034 34.3562 47.4867 33.906 48.1281 33.8686C48.4677 33.8686 48.7696 33.981 49.0714 34.2062L49.4486 33.5685C49.0714 33.2683 48.6941 33.1559 48.1659 33.1559C46.9962 33.1559 46.2416 33.9436 46.2416 35.0312ZM53.5614 35.0312V33.2309H52.7691V33.681C52.5049 33.3435 52.1277 33.1559 51.6371 33.1559C50.6184 33.1559 49.8261 33.9436 49.8261 35.0312C49.8261 36.1189 50.6184 36.9065 51.6371 36.9065C52.1653 36.9065 52.5427 36.7191 52.7691 36.3815V36.8315H53.5614V35.0312ZM50.6561 35.0312C50.6561 34.3936 51.0711 33.8686 51.7502 33.8686C52.3917 33.8686 52.8445 34.3562 52.8445 35.0312C52.8445 35.6689 52.3917 36.1939 51.7502 36.1939C51.0711 36.1563 50.6561 35.6689 50.6561 35.0312ZM41.1857 33.1559C40.1292 33.1559 39.3745 33.906 39.3745 35.0312C39.3745 36.1565 40.1291 36.9065 41.2234 36.9065C41.7516 36.9065 42.2799 36.7565 42.695 36.4191L42.3175 35.8564C42.0157 36.0815 41.6385 36.2315 41.2612 36.2315C40.7707 36.2315 40.2801 36.0065 40.1669 35.3687H42.8459V35.0688C42.8837 33.906 42.2046 33.1559 41.1857 33.1559ZM41.1856 33.831C41.6759 33.831 42.0157 34.1312 42.091 34.6938H40.2045C40.28 34.2062 40.6196 33.831 41.1856 33.831ZM60.8433 35.0312V31.8057H60.0509V33.681C59.7867 33.3435 59.4095 33.1559 58.9189 33.1559C57.9002 33.1559 57.1079 33.9436 57.1079 35.0312C57.1079 36.1189 57.9002 36.9065 58.9189 36.9065C59.4473 36.9065 59.8246 36.7191 60.0509 36.3815V36.8315H60.8433V35.0312ZM57.9381 35.0312C57.9381 34.3936 58.353 33.8686 59.0322 33.8686C59.6737 33.8686 60.1264 34.3562 60.1264 35.0312C60.1264 35.6689 59.6737 36.1939 59.0322 36.1939C58.353 36.1563 57.9381 35.6689 57.9381 35.0312ZM31.4509 35.0312V33.2309H30.6586V33.681C30.3944 33.3435 30.0171 33.1559 29.5266 33.1559C28.5079 33.1559 27.7156 33.9436 27.7156 35.0312C27.7156 36.1189 28.5079 36.9065 29.5266 36.9065C30.0549 36.9065 30.4322 36.7191 30.6586 36.3815V36.8315H31.4509V35.0312ZM28.5079 35.0312C28.5079 34.3936 28.923 33.8686 29.6021 33.8686C30.2435 33.8686 30.6964 34.3562 30.6964 35.0312C30.6964 35.6689 30.2435 36.1939 29.6021 36.1939C28.923 36.1563 28.5079 35.6689 28.5079 35.0312Z" fill="black"/>
<path d="M35.0356 5.8877H46.9208V27.1165H35.0356V5.8877Z" fill="#FF5F00"/>
<path d="M35.7903 16.5024C35.7903 12.1892 37.8277 8.36346 40.9593 5.88795C38.6579 4.08766 35.7527 3 32.5833 3C25.0746 3 19 9.0385 19 16.5024C19 23.9664 25.0746 30.0049 32.5831 30.0049C35.7525 30.0049 38.6577 28.9172 40.9593 27.1168C37.8277 24.6788 35.7903 20.8157 35.7903 16.5024Z" fill="#EB001B"/>
<path d="M62.9563 16.5024C62.9563 23.9662 56.8818 30.0049 49.3732 30.0049C46.2039 30.0049 43.2986 28.9172 40.9971 27.1168C44.1664 24.6414 46.1662 20.8157 46.1662 16.5024C46.1662 12.1892 44.1286 8.36346 40.9971 5.88795C43.2985 4.08766 46.2039 3 49.3732 3C56.8818 3 62.9563 9.07609 62.9563 16.5024Z" fill="#F79E1B"/>
</g>
<defs>
<clipPath id="clip0_531_1231">
<rect width="44" height="34" fill="white" transform="translate(19 3)"/>
</clipPath>
</defs>
</svg>
