<svg width="82" height="40" viewBox="0 0 82 40" fill="none" xmlns="http://www.w3.org/2000/svg">
<path d="M41.9962 16.5741C41.9631 19.2209 44.3214 20.6978 46.0979 21.576C47.9231 22.4769 48.5361 23.0547 48.5289 23.8605C48.5153 25.0936 47.073 25.6379 45.7234 25.659C43.3687 25.696 41.9996 25.0141 40.9112 24.4983L40.0629 28.5248C41.155 29.0353 43.177 29.4805 45.2739 29.5C50.1959 29.5 53.4161 27.0352 53.4335 23.2138C53.4528 18.3638 46.8206 18.0954 46.8659 15.9276C46.8816 15.2702 47.4999 14.5688 48.8547 14.3904C49.5253 14.3003 51.3766 14.2314 53.4754 15.2118L54.2992 11.3161C53.1705 10.8992 51.7198 10.5 49.9137 10.5C45.2809 10.5 42.0225 12.9983 41.9962 16.5741ZM62.2149 10.8356C61.3161 10.8356 60.5587 11.3674 60.2207 12.1835L53.1897 29.2139H58.1082L59.0869 26.4699H65.0972L65.665 29.2139H70L66.2171 10.8356H62.2149ZM62.9029 15.8002L64.3223 22.7015H60.435L62.9029 15.8002ZM36.0328 10.8358L32.1559 29.2136H36.8428L40.7179 10.8353L36.0328 10.8358ZM29.0994 10.8358L24.221 23.3446L22.2476 12.7085C22.0161 11.5212 21.1017 10.8356 20.0862 10.8356H12.1117L12 11.3692C13.6371 11.7296 15.4972 12.3109 16.6241 12.9328C17.3138 13.3127 17.5105 13.6448 17.737 14.5476L21.4746 29.2139H26.4275L34.021 10.8356L29.0994 10.8358Z" fill="url(#paint0_linear_531_1229)"/>
<defs>
<linearGradient id="paint0_linear_531_1229" x1="2678.49" y1="67.614" x2="2734.28" y2="-1883.67" gradientUnits="userSpaceOnUse">
<stop stop-color="#222357"/>
<stop offset="1" stop-color="#254AA5"/>
</linearGradient>
</defs>
</svg>
